<svg width="26" height="26" viewBox="0 0 26 26" fill="none" xmlns="http://www.w3.org/2000/svg">
  <defs>
    <linearGradient id="orbitBodyB" x1="7" y1="3.5" x2="18.5" y2="22" gradientUnits="userSpaceOnUse">
      <stop stop-color="#EAFBFF"/>
      <stop offset="1" stop-color="#5AAEF4"/>
    </linearGradient>
  </defs>
  <ellipse cx="13" cy="19.8" rx="9.2" ry="2.9" fill="#07131F" fill-opacity="0.18"/>
  <path d="M13 3C18.5 3 22 7.1 22 12C22 17 18.8 21.2 13 21.2C7.2 21.2 4 17 4 12C4 7.1 7.5 3 13 3Z" fill="url(#orbitBodyB)"/>
  <path d="M3.6 9.1C6.7 5 13.6 3.5 19.1 6" stroke="#C7F1FF" stroke-width="1.7" stroke-linecap="round"/>
  <path d="M22.4 15.5C19.4 19.8 12.5 21.3 6.9 18.6" stroke="#1C6DB8" stroke-width="1.7" stroke-linecap="round"/>
  <path d="M7.8 12.3C7.8 11.2 8.7 10.3 9.8 10.3C10.9 10.3 11.8 11.2 11.8 12.3C11.8 13.4 10.9 14.3 9.8 14.3C8.7 14.3 7.8 13.4 7.8 12.3Z" fill="#0B2E4B"/>
  <path d="M14.2 12.3C14.2 11.2 15.1 10.3 16.2 10.3C17.3 10.3 18.2 11.2 18.2 12.3C18.2 13.4 17.3 14.3 16.2 14.3C15.1 14.3 14.2 13.4 14.2 12.3Z" fill="#0B2E4B"/>
  <path d="M9.4 16.3C10.3 17.1 11.6 17.6 13 17.6C14.4 17.6 15.7 17.1 16.6 16.3" stroke="#0B2E4B" stroke-width="1.4" stroke-linecap="round"/>
  <circle cx="9.8" cy="8.2" r="1.6" fill="#F3FCFF" fill-opacity="0.72"/>
</svg>
